<svg width="93" height="66" viewBox="0 0 93 66" fill="none" xmlns="http://www.w3.org/2000/svg">
<g clip-path="url(#clip0_7602_5)">
<path fill-rule="evenodd" clip-rule="evenodd" d="M67.1673 32.6313C67.6422 32.1857 67.673 31.4357 67.2331 30.9548C66.7928 30.4723 66.0528 30.443 65.5779 30.8887C65.102 31.3327 65.073 32.0842 65.5128 32.5652C65.9514 33.0462 66.693 33.0756 67.1673 32.6313ZM7.13095 35.4346C7.13095 35.4346 -7.57942 47.931 24.7443 50.6318C24.7443 50.6318 -16.0618 55.3496 7.13095 35.4346ZM14.6883 37.4923C13.7868 34.3021 14.9743 31.3828 15.6798 30.0399C15.6305 30.1841 15.584 30.3282 15.539 30.4708C15.597 30.3503 15.6536 30.2385 15.7073 30.1356C15.896 29.7767 16.0499 29.5311 16.1211 29.4222C16.1268 29.3693 16.1326 29.3149 16.1384 29.262C17.9937 12.792 31.7976 6.10352e-05 48.5501 6.10352e-05C57.1219 6.10352e-05 64.9204 3.34689 70.7416 8.82335C105.942 3.73326 88.9211 28.0795 88.6535 28.459C98.365 9.94987 79.6504 14.5496 76.2141 15.5242C79.2892 20.4937 81.0954 26.3485 81.173 32.6269C81.175 32.7504 81.176 32.8754 81.176 33.0005C81.176 33.127 81.175 33.2534 81.173 33.3784C81.0482 46.6722 73.1761 58.0862 61.9109 63.2159L61.9097 63.2171C60.992 63.6345 60.0503 64.0098 59.0889 64.3425C59.0717 64.348 59.0557 64.3542 59.0385 64.3587C58.4689 64.5102 57.906 64.6528 57.347 64.7836C55.1099 65.3126 52.9615 65.6803 50.9016 65.9146C50.1266 65.9719 49.3423 65.9999 48.5514 65.9999C45.9429 65.9999 43.405 65.6897 40.9736 65.1026C38.5422 64.5176 36.2166 63.6557 34.0289 62.5522C34.0289 62.5522 34.0289 62.551 34.0275 62.551C33.5571 62.3141 33.0926 62.0643 32.6338 61.8038C28.1975 59.9051 16.4593 57.2181 15.5579 57.0125C19.4236 57.8406 23.3911 57.8625 26.7981 57.5783C26.7923 57.5728 26.7851 57.5671 26.7793 57.5609C27.1074 57.5403 27.4369 57.5154 27.7679 57.4874C31.3855 57.1166 34.2496 56.4361 35.4805 56.1109C44.2108 53.7548 51.1889 49.2545 58.838 40.7904L59.3153 40.3436L59.4924 40.538L59.2225 45.1L63.0463 41.5189L63.7998 37.8113C64.7261 37.2554 65.6973 36.5227 66.6366 35.6434C68.5034 33.8947 69.6443 32.2092 70.3671 30.4635C70.8203 29.3694 71.524 27.8148 71.0916 27.3412C70.6636 26.8721 69.0459 27.4515 67.9504 27.8134C66.1704 28.3987 64.4499 29.4297 62.5715 31.1885C61.6747 32.0284 60.9065 32.9092 60.3 33.7653L56.4195 34.2565L52.5955 37.8361L57.1059 37.9228L57.283 38.1172L56.8058 38.564C56.8058 38.564 26.0128 49.525 17.0401 41.5426C17.0284 41.532 17.0182 41.5233 17.0067 41.5114H17.0052C16.0936 40.545 15.4679 39.5554 15.06 38.5772C15.0571 38.5728 15.0555 38.5703 15.0555 38.5672C14.9249 38.2556 14.8176 37.9452 14.729 37.6375C14.7144 37.5889 14.6999 37.5408 14.6884 37.4923H14.6883ZM68.1983 14.3254C67.1692 14.3254 67.1705 12.7075 68.1983 12.7075C69.2273 12.7075 69.2248 14.3254 68.1983 14.3254ZM63.9395 9.61964C62.537 9.61964 62.5383 7.4136 63.9395 7.4136C65.3431 7.4136 65.3412 9.61964 63.9395 9.61964ZM63.3582 21.6792C62.3291 21.6792 62.3323 20.0618 63.3582 20.0618C64.3879 20.0618 64.3859 21.6792 63.3582 21.6792ZM68.1011 9.32499C68.5686 9.32499 68.5686 10.0611 68.1011 10.0611C67.6336 10.0611 67.6336 9.32499 68.1011 9.32499ZM60.7454 5.74673C60.2779 5.74673 60.2797 5.01171 60.7454 5.01171C61.2146 5.01171 61.2129 5.74673 60.7454 5.74673ZM56.681 15.8454C56.2135 15.8454 56.2147 15.1093 56.681 15.1093C57.1496 15.1093 57.1485 15.8454 56.681 15.8454ZM55.3265 8.49107C54.8591 8.49107 54.8591 7.75605 55.3265 7.75605C55.794 7.75605 55.794 8.49107 55.3265 8.49107ZM53.9721 2.92794C53.2229 2.92794 53.2241 1.75147 53.9721 1.75147C54.7194 1.75147 54.7182 2.92794 53.9721 2.92794ZM48.4555 5.10857C47.4264 5.10857 47.4277 3.49067 48.4555 3.49067C49.4851 3.49067 49.4821 5.10857 48.4555 5.10857ZM41.0025 14.1786C40.5351 14.1786 40.5369 13.4436 41.0025 13.4436C41.4718 13.4436 41.47 14.1786 41.0025 14.1786ZM35.5837 4.47244C35.1163 4.47244 35.1163 3.73644 35.5837 3.73644C36.0512 3.73644 36.0512 4.47244 35.5837 4.47244Z" fill="url(#paint0_linear_7602_5)"/>
</g>
<defs>
<linearGradient id="paint0_linear_7602_5" x1="19.0639" y1="42.5226" x2="96.0934" y2="25.4479" gradientUnits="userSpaceOnUse">
<stop stop-color="#ED1C24"/>
<stop offset="0.4" stop-color="#841844"/>
<stop offset="1" stop-color="#1B1464"/>
</linearGradient>
<clipPath id="clip0_7602_5">
<rect width="93" height="66" fill="white"/>
</clipPath>
</defs>
</svg>
